<?xml version="1.0" encoding="iso-8859-1"?>
<!-- Generator: Adobe Illustrator 19.0.0, SVG Export Plug-In . SVG Version: 6.00 Build 0)  -->
<svg version="1.1" id="Layer_1" xmlns="http://www.w3.org/2000/svg" xmlns:xlink="http://www.w3.org/1999/xlink" x="0px" y="0px"
	 viewBox="0 0 472.681 472.681" style="enable-background:new 0 0 472.681 472.681;" xml:space="preserve">
<g>
	<g>
		<path d="M430.999,3.61c-2.757-3.349-7.385-4.529-11.323-2.855L143.983,114.576c-3.446,1.377-5.711,4.628-6.105,8.271
			c-0.295,3.643,1.477,7.188,4.628,9.157l44.603,28.099v81.007c0,4.144,2.596,7.846,6.5,9.259c1.096,0.395,2.22,0.587,3.346,0.587
			c2.865,0,5.663-1.259,7.568-3.549l44.886-53.982l41.085,23.549c1.477,0.887,3.151,1.281,4.825,1.281
			c3.249,0,6.4-1.575,8.271-4.529L431.688,15.227C434.051,11.586,433.756,6.859,430.999,3.61z M206.802,213.87v-52.727
			l68.629-29.811L206.802,213.87z"/>
	</g>
</g>
<g>
	<g>
		<polygon points="0.033,153.12 0.033,458.978 162.256,281.639 		"/>
	</g>
</g>
<g>
	<g>
		<path d="M375.948,137.911l-55.81,86.487c-5.355,8.443-14.663,13.548-24.817,13.548c-5.317,0-10.47-1.404-14.923-4.067
			l-26.423-15.144l-34.308,41.26c-5.634,6.769-13.913,10.654-22.711,10.654c-3.414,0-6.789-0.587-10.01-1.75
			c-11.692-4.231-19.529-15.394-19.529-27.789v-70.144l-35.414-22.299c-4.333-2.719-7.744-6.459-10.123-10.756H12.556
			L236.34,315.216l223.771-177.305H375.948z"/>
	</g>
</g>
<g>
	<g>
		<polygon points="310.424,281.637 472.648,458.978 472.648,153.11 		"/>
	</g>
</g>
<g>
	<g>
		<polygon points="294.946,293.898 236.34,340.331 177.733,293.901 14.191,472.681 458.489,472.681 		"/>
	</g>
</g>
<g>
</g>
<g>
</g>
<g>
</g>
<g>
</g>
<g>
</g>
<g>
</g>
<g>
</g>
<g>
</g>
<g>
</g>
<g>
</g>
<g>
</g>
<g>
</g>
<g>
</g>
<g>
</g>
<g>
</g>
</svg>
